<svg id="visual" viewBox="0 0 540 960" width="540" height="960" xmlns="http://www.w3.org/2000/svg" xmlns:xlink="http://www.w3.org/1999/xlink" version="1.1"><path d="M0 193L15 205.8C30 218.7 60 244.3 90 268.3C120 292.3 150 314.7 180 303.5C210 292.3 240 247.7 270 230C300 212.3 330 221.7 360 245.7C390 269.7 420 308.3 450 319.7C480 331 510 315 525 307L540 299L540 0L525 0C510 0 480 0 450 0C420 0 390 0 360 0C330 0 300 0 270 0C240 0 210 0 180 0C150 0 120 0 90 0C60 0 30 0 15 0L0 0Z" fill="#6198ff"></path><path d="M0 299L15 313.3C30 327.7 60 356.3 90 385C120 413.7 150 442.3 180 432.7C210 423 240 375 270 351C300 327 330 327 360 343C390 359 420 391 450 399C480 407 510 391 525 383L540 375L540 297L525 305C510 313 480 329 450 317.7C420 306.3 390 267.7 360 243.7C330 219.7 300 210.3 270 228C240 245.7 210 290.3 180 301.5C150 312.7 120 290.3 90 266.3C60 242.3 30 216.7 15 203.8L0 191Z" fill="#4385ff"></path><path d="M0 491L15 502.2C30 513.3 60 535.7 90 558C120 580.3 150 602.7 180 583.5C210 564.3 240 503.7 270 474.8C300 446 330 449 360 477.7C390 506.3 420 560.7 450 581.5C480 602.3 510 589.7 525 583.3L540 577L540 373L525 381C510 389 480 405 450 397C420 389 390 357 360 341C330 325 300 325 270 349C240 373 210 421 180 430.7C150 440.3 120 411.7 90 383C60 354.3 30 325.7 15 311.3L0 297Z" fill="#2071ff"></path><path d="M0 606L15 610.8C30 615.7 60 625.3 90 644.5C120 663.7 150 692.3 180 676.3C210 660.3 240 599.7 270 575.7C300 551.7 330 564.3 360 593C390 621.7 420 666.3 450 684C480 701.7 510 692.3 525 687.7L540 683L540 575L525 581.3C510 587.7 480 600.3 450 579.5C420 558.7 390 504.3 360 475.7C330 447 300 444 270 472.8C240 501.7 210 562.3 180 581.5C150 600.7 120 578.3 90 556C60 533.7 30 511.3 15 500.2L0 489Z" fill="#0061f1"></path><path d="M0 875L15 871.7C30 868.3 60 861.7 90 864.8C120 868 150 881 180 882.7C210 884.3 240 874.7 270 871.5C300 868.3 330 871.7 360 874.8C390 878 420 881 450 882.5C480 884 510 884 525 884L540 884L540 681L525 685.7C510 690.3 480 699.7 450 682C420 664.3 390 619.7 360 591C330 562.3 300 549.7 270 573.7C240 597.7 210 658.3 180 674.3C150 690.3 120 661.7 90 642.5C60 623.3 30 613.7 15 608.8L0 604Z" fill="#0056d6"></path><path d="M0 961L15 961C30 961 60 961 90 961C120 961 150 961 180 961C210 961 240 961 270 961C300 961 330 961 360 961C390 961 420 961 450 961C480 961 510 961 525 961L540 961L540 882L525 882C510 882 480 882 450 880.5C420 879 390 876 360 872.8C330 869.7 300 866.3 270 869.5C240 872.7 210 882.3 180 880.7C150 879 120 866 90 862.8C60 859.7 30 866.3 15 869.7L0 873Z" fill="#004cbb"></path></svg>