<svg id="visual" viewBox="0 0 960 540" width="960" height="540" xmlns="http://www.w3.org/2000/svg" xmlns:xlink="http://www.w3.org/1999/xlink" version="1.1"><path d="M0 109L26.7 116.2C53.3 123.3 106.7 137.7 160 151.2C213.3 164.7 266.7 177.3 320 171C373.3 164.7 426.7 139.3 480 129.5C533.3 119.7 586.7 125.3 640 138.8C693.3 152.3 746.7 173.7 800 179.8C853.3 186 906.7 177 933.3 172.5L960 168L960 0L933.3 0C906.7 0 853.3 0 800 0C746.7 0 693.3 0 640 0C586.7 0 533.3 0 480 0C426.7 0 373.3 0 320 0C266.7 0 213.3 0 160 0C106.7 0 53.3 0 26.7 0L0 0Z" fill="#6198ff"></path><path d="M0 168L26.7 176.2C53.3 184.3 106.7 200.7 160 217C213.3 233.3 266.7 249.7 320 244.3C373.3 239 426.7 212 480 198.5C533.3 185 586.7 185 640 194C693.3 203 746.7 221 800 225.5C853.3 230 906.7 221 933.3 216.5L960 212L960 166L933.3 170.5C906.7 175 853.3 184 800 177.8C746.7 171.7 693.3 150.3 640 136.8C586.7 123.3 533.3 117.7 480 127.5C426.7 137.3 373.3 162.7 320 169C266.7 175.3 213.3 162.7 160 149.2C106.7 135.7 53.3 121.3 26.7 114.2L0 107Z" fill="#4385ff"></path><path d="M0 276L26.7 282.3C53.3 288.7 106.7 301.3 160 314C213.3 326.7 266.7 339.3 320 328.5C373.3 317.7 426.7 283.3 480 267.2C533.3 251 586.7 253 640 269.3C693.3 285.7 746.7 316.3 800 328C853.3 339.7 906.7 332.3 933.3 328.7L960 325L960 210L933.3 214.5C906.7 219 853.3 228 800 223.5C746.7 219 693.3 201 640 192C586.7 183 533.3 183 480 196.5C426.7 210 373.3 237 320 242.3C266.7 247.7 213.3 231.3 160 215C106.7 198.7 53.3 182.3 26.7 174.2L0 166Z" fill="#2071ff"></path><path d="M0 341L26.7 343.7C53.3 346.3 106.7 351.7 160 362.5C213.3 373.3 266.7 389.7 320 380.7C373.3 371.7 426.7 337.3 480 323.8C533.3 310.3 586.7 317.7 640 334C693.3 350.3 746.7 375.7 800 385.5C853.3 395.3 906.7 389.7 933.3 386.8L960 384L960 323L933.3 326.7C906.7 330.3 853.3 337.7 800 326C746.7 314.3 693.3 283.7 640 267.3C586.7 251 533.3 249 480 265.2C426.7 281.3 373.3 315.7 320 326.5C266.7 337.3 213.3 324.7 160 312C106.7 299.3 53.3 286.7 26.7 280.3L0 274Z" fill="#0061f1"></path><path d="M0 492L26.7 490.3C53.3 488.7 106.7 485.3 160 487.2C213.3 489 266.7 496 320 496.8C373.3 497.7 426.7 492.3 480 490.5C533.3 488.7 586.7 490.3 640 492.2C693.3 494 746.7 496 800 497C853.3 498 906.7 498 933.3 498L960 498L960 382L933.3 384.8C906.7 387.7 853.3 393.3 800 383.5C746.7 373.7 693.3 348.3 640 332C586.7 315.7 533.3 308.3 480 321.8C426.7 335.3 373.3 369.7 320 378.7C266.7 387.7 213.3 371.3 160 360.5C106.7 349.7 53.3 344.3 26.7 341.7L0 339Z" fill="#0056d6"></path><path d="M0 541L26.7 541C53.3 541 106.7 541 160 541C213.3 541 266.7 541 320 541C373.3 541 426.7 541 480 541C533.3 541 586.7 541 640 541C693.3 541 746.7 541 800 541C853.3 541 906.7 541 933.3 541L960 541L960 496L933.3 496C906.7 496 853.3 496 800 495C746.7 494 693.3 492 640 490.2C586.7 488.3 533.3 486.7 480 488.5C426.7 490.3 373.3 495.7 320 494.8C266.7 494 213.3 487 160 485.2C106.7 483.3 53.3 486.7 26.7 488.3L0 490Z" fill="#004cbb"></path></svg>